<svg xmlns="http://www.w3.org/2000/svg" width="164.318" height="39.814" viewBox="0 0 164.318 39.814">
  <path id="beartour_logo" data-name="beartour logo" d="M-1994.015,20.655A1.216,1.216,0,0,1-1994.47,19l14.017-24.64a1.213,1.213,0,0,1,1.039-.614,1.215,1.215,0,0,1,1.057.584l5.507,9.065,12.231-21.772a1.214,1.214,0,0,1,1.051-.62,1.216,1.216,0,0,1,1.06.606l15.453,26.645,4.123-7.168a1.215,1.215,0,0,1,1.049-.61,1.222,1.222,0,0,1,1.054.6l10.481,17.909a1.216,1.216,0,0,1-.435,1.663,1.215,1.215,0,0,1-1.663-.435l-9.424-16.1-3.777,6.567,4.82,8.311a1.215,1.215,0,0,1,0,1.217,1.216,1.216,0,0,1-1.053.608h-10.3a1.215,1.215,0,0,1-1.052-.607,1.215,1.215,0,0,1,0-1.215l4.779-8.309-15.089-26.015L-1971.4,5.777l8.014,13.19a1.216,1.216,0,0,1,.02,1.228,1.215,1.215,0,0,1-1.059.619h-16.132a1.216,1.216,0,0,1-1.049-.6,1.219,1.219,0,0,1-.011-1.21l7.4-13.178-5.145-8.469-13,22.844a1.216,1.216,0,0,1-1.057.615A1.212,1.212,0,0,1-1994.015,20.655Zm47.937-2.273h6.089l-3.057-5.271Zm-32.4,0h11.894l-6.179-10.173Zm124.926,1.081a2.978,2.978,0,0,1-.923-2.148V9.971h2.232v6.552a2.1,2.1,0,0,0,.491,1.332,1.776,1.776,0,0,0,1.332.516,2.464,2.464,0,0,0,1.489-.491,3.391,3.391,0,0,0,1.068-1.356,4.545,4.545,0,0,0,.4-1.92V9.971h2.232v9.936h-2.016l-.144-1.9a3.988,3.988,0,0,1-1.56,1.644,4.47,4.47,0,0,1-2.352.636A3.137,3.137,0,0,1-1853.556,19.463Zm-9.876.023a4.87,4.87,0,0,1-1.956-1.859,5.372,5.372,0,0,1-.708-2.785,5.2,5.2,0,0,1,.708-2.676,5.064,5.064,0,0,1,1.967-1.908,5.78,5.78,0,0,1,2.844-.7,5.645,5.645,0,0,1,2.821.7,4.971,4.971,0,0,1,1.92,1.9,5.324,5.324,0,0,1,.684,2.687,5.4,5.4,0,0,1-.684,2.7,4.919,4.919,0,0,1-1.932,1.908,5.758,5.758,0,0,1-2.856.7A5.915,5.915,0,0,1-1863.432,19.487Zm1.152-7.608a3.338,3.338,0,0,0-1.14,1.26,3.633,3.633,0,0,0-.419,1.728,3.633,3.633,0,0,0,.419,1.728,3.212,3.212,0,0,0,1.152,1.248,3.012,3.012,0,0,0,1.62.455,3,3,0,0,0,2.3-.984,3.464,3.464,0,0,0,.913-2.448,3.5,3.5,0,0,0-.913-2.46,2.987,2.987,0,0,0-2.3-1A2.926,2.926,0,0,0-1862.28,11.879Zm-26.124,7.656a4.458,4.458,0,0,1-1.8-1.788,5.649,5.649,0,0,1-.66-2.808,6.991,6.991,0,0,1,.06-.934l-7.524,2.638a3.134,3.134,0,0,0,1.164,1.165,3.291,3.291,0,0,0,1.668.419,4.049,4.049,0,0,0,2.425-.864l1.031,1.656a6.929,6.929,0,0,1-1.715.828,5.79,5.79,0,0,1-1.788.3,5.881,5.881,0,0,1-2.892-.684,4.806,4.806,0,0,1-1.908-1.885,5.176,5.176,0,0,1-.58-1.633,5.217,5.217,0,0,1-.6,1.682A4.769,4.769,0,0,1-1903.4,19.5a5.3,5.3,0,0,1-2.58.648,5.043,5.043,0,0,1-2.22-.481,4.411,4.411,0,0,1-1.62-1.3v1.536h-2.232V1.307h2.232v9.985a4.267,4.267,0,0,1,1.716-1.26,6.055,6.055,0,0,1,2.412-.468,4.807,4.807,0,0,1,2.46.648,4.661,4.661,0,0,1,1.764,1.823,5.159,5.159,0,0,1,.572,1.71,4.992,4.992,0,0,1,.616-1.553,5.325,5.325,0,0,1,2-1.921,5.63,5.63,0,0,1,2.784-.707,4.776,4.776,0,0,1,3.253,1.139,5.543,5.543,0,0,1,1.6,2.515,5.021,5.021,0,0,1,.463-1.123,4.836,4.836,0,0,1,1.848-1.872,5.141,5.141,0,0,1,2.58-.66,4.266,4.266,0,0,1,2.208.552,4.485,4.485,0,0,1,1.512,1.44l.168-1.584h2.064v9.936h-2.232V18.275a5.152,5.152,0,0,1-1.535,1.283,4.438,4.438,0,0,1-2.281.589A5.324,5.324,0,0,1-1888.4,19.535Zm1.44-7.692a3.175,3.175,0,0,0-1.2,1.212,3.5,3.5,0,0,0-.444,1.764,3.451,3.451,0,0,0,.455,1.751,3.489,3.489,0,0,0,1.224,1.26,3.168,3.168,0,0,0,1.68.468,3.307,3.307,0,0,0,2.1-.684,3.038,3.038,0,0,0,1.116-1.859V13.787a3.059,3.059,0,0,0-1.2-1.716,3.469,3.469,0,0,0-2.088-.66A3.258,3.258,0,0,0-1886.964,11.843Zm-21.648.156a3.053,3.053,0,0,0-1.212,1.741v2.016a3.232,3.232,0,0,0,1.2,1.776,3.459,3.459,0,0,0,2.16.7,3.2,3.2,0,0,0,2.412-.984,3.422,3.422,0,0,0,.948-2.472,3.453,3.453,0,0,0-.444-1.74,3.321,3.321,0,0,0-1.212-1.236,3.273,3.273,0,0,0-1.7-.456A3.6,3.6,0,0,0-1908.612,12Zm10.692.3a3.462,3.462,0,0,0-.888,2.448,4.706,4.706,0,0,0,.024.552l5.784-2.136a3.3,3.3,0,0,0-1.021-1.32,2.628,2.628,0,0,0-1.643-.5A2.937,2.937,0,0,0-1897.92,12.3Zm61.644,7.439a3.9,3.9,0,0,1-1.62-1.128l.96-1.3a4.776,4.776,0,0,0,1.26.888,3.041,3.041,0,0,0,1.308.311,2.428,2.428,0,0,0,1.3-.311,1.05,1.05,0,0,0,.5-.96,1.1,1.1,0,0,0-.311-.816,1.917,1.917,0,0,0-.708-.455q-.4-.144-1.332-.432-2.543-.817-2.544-2.9a2.856,2.856,0,0,1,.924-2.136,3.571,3.571,0,0,1,2.58-.888,6.1,6.1,0,0,1,1.872.264,4.571,4.571,0,0,1,1.512.841l-.888,1.368a2.7,2.7,0,0,0-.972-.648,3.371,3.371,0,0,0-1.116-.265,2.011,2.011,0,0,0-1.152.324,1.006,1.006,0,0,0-.48.877,1.007,1.007,0,0,0,.311.756,2,2,0,0,0,.648.432q.336.131,1.32.444A5.066,5.066,0,0,1-1831,15.059a2.3,2.3,0,0,1,.684,1.752,3.1,3.1,0,0,1-1.008,2.376,4.042,4.042,0,0,1-2.856.936A5.779,5.779,0,0,1-1836.276,19.739Zm-7.4.168V9.971h1.992l.168,2.352a4.412,4.412,0,0,1,1.092-1.44,5.517,5.517,0,0,1,1.5-.959,4.045,4.045,0,0,1,1.391-.36l-.1,2.232a3.649,3.649,0,0,0-1.957.432,3.471,3.471,0,0,0-1.368,1.332,3.568,3.568,0,0,0-.491,1.812v4.536Zm-26.9,0V11.771h-1.606V11.8a3.649,3.649,0,0,0-1.957.432,3.472,3.472,0,0,0-1.368,1.332,3.568,3.568,0,0,0-.491,1.812v4.536h-2.232V9.971h1.992l.168,2.352a4.412,4.412,0,0,1,1.092-1.44,5.531,5.531,0,0,1,1.5-.959,4.046,4.046,0,0,1,1.391-.36l-.019.432h1.531V5.6h2.256V10h2.712v1.776h-2.712v8.136Z" transform="translate(1994.63 19)" fill="#fff"/>
</svg>
