<svg xmlns="http://www.w3.org/2000/svg" width="165.629" height="44.907" viewBox="0 0 165.629 44.907">
  <g id="Group_1" data-name="Group 1" transform="translate(-85.371 -30.093)">
    <path id="Path_1" data-name="Path 1" d="M636.585,1176.9a1.216,1.216,0,0,1-1.055-1.817l14.017-24.64a1.216,1.216,0,0,1,2.1-.03l5.507,9.065,12.231-21.772a1.216,1.216,0,0,1,2.111-.015l15.454,26.644,4.123-7.168a1.216,1.216,0,0,1,2.1-.008l10.482,17.91a1.216,1.216,0,1,1-2.1,1.228l-9.424-16.1-3.778,6.567,4.82,8.31a1.216,1.216,0,0,1-1.052,1.825h-10.3a1.216,1.216,0,0,1-1.054-1.822l4.779-8.309-15.089-26.015-11.858,21.11,8.013,13.19a1.216,1.216,0,0,1-1.039,1.847H649.44a1.216,1.216,0,0,1-1.06-1.811l7.4-13.178-5.145-8.469-12.995,22.843A1.215,1.215,0,0,1,636.585,1176.9Zm47.336-2.431h6.09l-3.058-5.272Zm-32.4,0h11.895l-6.18-10.173Z" transform="translate(-550 -1106.993)" fill="#fff"/>
    <text id="beartours" transform="translate(166 69)" fill="#fff" font-size="24" font-family="JosefinSans-Regular, Josefin Sans" letter-spacing="-0.097em"><tspan x="0" y="0">beartours</tspan></text>
  </g>
</svg>
