<svg xmlns="http://www.w3.org/2000/svg" width="128.724" height="43" viewBox="0 0 128.724 43">
  <g id="icon_plus_circle" data-name="icon plus circle" transform="translate(-183 -923)">
    <path id="Path_4" data-name="Path 4" d="M10.368-16.008h-8.3V0h8.3V-1.68H3.84V-7.9h6.336v-1.68H3.84v-4.752h6.528ZM11.76,0h2.112l3.144-4.056L20.16,0h2.112L18.144-5.3,21.792-9.96H19.68L17.064-6.576,14.5-9.96H12.384l3.624,4.632ZM25.824-1.392A4.229,4.229,0,0,0,29.3.288c3.024,0,4.776-2.472,4.776-5.208,0-2.688-1.728-5.28-4.848-5.28a4.283,4.283,0,0,0-3.408,1.632V-9.96H24.1V5.52h1.728Zm3.24.144a3.407,3.407,0,0,1-3.336-3.7,3.457,3.457,0,0,1,3.312-3.72A3.416,3.416,0,0,1,32.3-4.92C32.3-2.928,31.08-1.248,29.064-1.248ZM36.72-17.5V0h1.728V-17.5ZM46.368.288a5.108,5.108,0,0,0,5.28-5.232,5.114,5.114,0,0,0-5.28-5.256,5.114,5.114,0,0,0-5.28,5.256A5.108,5.108,0,0,0,46.368.288Zm0-8.952a3.448,3.448,0,0,1,3.5,3.72,3.453,3.453,0,0,1-3.5,3.7,3.452,3.452,0,0,1-3.5-3.7A3.461,3.461,0,0,1,46.368-8.664ZM54.288,0h1.728V-5.256a4.3,4.3,0,0,1,.576-2.688,1.673,1.673,0,0,1,1.392-.624,1.778,1.778,0,0,1,1.008.336l.816-1.56a3.65,3.65,0,0,0-1.536-.408,2.768,2.768,0,0,0-2.256,1.32V-9.96H54.288Zm13.92-3.336a3.968,3.968,0,0,1-1.032,1.368,3.028,3.028,0,0,1-2.04.72,3.19,3.19,0,0,1-3.168-3.384H69.72a6.687,6.687,0,0,0-.936-3.744A4.456,4.456,0,0,0,65.016-10.2c-3,0-4.824,2.3-4.824,5.28,0,3.7,2.52,5.208,4.92,5.208A4.835,4.835,0,0,0,68.424-.936a5.959,5.959,0,0,0,1.224-1.608Zm-6.12-2.736a3.027,3.027,0,0,1,2.928-2.592,2.981,2.981,0,0,1,2.928,2.592Z" transform="translate(242 953)" fill="#fff"/>
    <path id="Path_2" data-name="Path 2" d="M19.814,0H0" transform="translate(204.302 934.593) rotate(90)" fill="none" stroke="#fff" stroke-linecap="round" stroke-width="1" opacity="0.339"/>
    <g id="Path_3" data-name="Path 3" transform="translate(183 923)" fill="none" opacity="0.339">
      <path d="M21.5,0A21.5,21.5,0,1,1,0,21.5,21.5,21.5,0,0,1,21.5,0Z" stroke="none"/>
      <path d="M 21.5 1 C 18.73208045959473 1 16.0474796295166 1.541881561279297 13.52078056335449 2.610580444335938 C 11.07978057861328 3.643039703369141 8.887321472167969 5.121299743652344 7.004310607910156 7.004310607910156 C 5.121299743652344 8.887321472167969 3.643039703369141 11.07978057861328 2.610580444335938 13.52078056335449 C 1.541881561279297 16.0474796295166 1 18.73208045959473 1 21.5 C 1 24.26791954040527 1.541881561279297 26.9525203704834 2.610580444335938 29.47922134399414 C 3.643039703369141 31.92021942138672 5.121299743652344 34.11267852783203 7.004310607910156 35.99568939208984 C 8.887321472167969 37.87870025634766 11.07978057861328 39.35696029663086 13.52078056335449 40.38941955566406 C 16.0474796295166 41.4581184387207 18.73208045959473 42 21.5 42 C 24.26791954040527 42 26.9525203704834 41.4581184387207 29.47922134399414 40.38941955566406 C 31.92021942138672 39.35696029663086 34.11267852783203 37.87870025634766 35.99568939208984 35.99568939208984 C 37.87870025634766 34.11267852783203 39.35696029663086 31.92021942138672 40.38941955566406 29.47922134399414 C 41.4581184387207 26.9525203704834 42 24.26791954040527 42 21.5 C 42 18.73208045959473 41.4581184387207 16.0474796295166 40.38941955566406 13.52078056335449 C 39.35696029663086 11.07978057861328 37.87870025634766 8.887321472167969 35.99568939208984 7.004310607910156 C 34.11267852783203 5.121299743652344 31.92021942138672 3.643039703369141 29.47922134399414 2.610580444335938 C 26.9525203704834 1.541881561279297 24.26791954040527 1 21.5 1 M 21.5 0 C 33.37411880493164 0 43 9.625881195068359 43 21.5 C 43 33.37411880493164 33.37411880493164 43 21.5 43 C 9.625881195068359 43 0 33.37411880493164 0 21.5 C 0 9.625881195068359 9.625881195068359 0 21.5 0 Z" stroke="none" fill="#fff"/>
    </g>
    <path id="Path_1" data-name="Path 1" d="M19.814,0H0" transform="translate(194.395 944.5)" fill="none" stroke="#fff" stroke-linecap="round" stroke-width="1" opacity="0.339"/>
  </g>
</svg>
