<svg xmlns="http://www.w3.org/2000/svg" width="471.471" height="24.405" viewBox="0 0 471.471 24.405">
  <path id="menu" d="M-1557.548,48h0Zm-401.4-5.34a3.929,3.929,0,0,1-1.273-3.192v-6.36h2.929v5.881a2.334,2.334,0,0,0,.624,1.823,2.382,2.382,0,0,0,1.488.528,2.38,2.38,0,0,0,1.488-.528,2.332,2.332,0,0,0,.625-1.823V33.108h2.928v6.36a3.928,3.928,0,0,1-1.272,3.192,5.973,5.973,0,0,1-3.768,1.175A5.97,5.97,0,0,1-1958.944,42.661Zm-13.681-.288a5.462,5.462,0,0,1-1.751-4.056,5.476,5.476,0,0,1,1.751-4.08,5.981,5.981,0,0,1,4.2-1.464,5.98,5.98,0,0,1,4.2,1.464,5.476,5.476,0,0,1,1.752,4.08,5.462,5.462,0,0,1-1.752,4.056,5.984,5.984,0,0,1-4.2,1.463A5.985,5.985,0,0,1-1972.625,42.373Zm1.273-4.056a2.894,2.894,0,0,0,2.928,2.928,2.894,2.894,0,0,0,2.929-2.928,2.9,2.9,0,0,0-2.929-2.952A2.9,2.9,0,0,0-1971.352,38.317Zm-13.248,3.84V43.5h-2.928V26h2.928v8.448a4.031,4.031,0,0,1,3.384-1.68c3.072,0,5.112,2.376,5.112,5.52,0,3.168-2.112,5.544-5.184,5.544A3.928,3.928,0,0,1-1984.6,42.157Zm-.288-3.865a2.846,2.846,0,0,0,2.88,2.952,2.846,2.846,0,0,0,2.88-2.952,2.826,2.826,0,0,0-2.88-2.928A2.825,2.825,0,0,0-1984.888,38.292Zm321.968.288a5.146,5.146,0,0,1,5.328-5.279,5.278,5.278,0,0,1,3.1.959v2.065a4.018,4.018,0,0,0-3.12-1.489,3.466,3.466,0,0,0-3.528,3.721,3.466,3.466,0,0,0,3.5,3.7,4.244,4.244,0,0,0,3.216-1.56v2.064a5.32,5.32,0,0,1-3.168,1.032A5.1,5.1,0,0,1-1662.92,38.58Zm-12.624-.072c0-3.432,2.3-5.207,4.848-5.207a4.122,4.122,0,0,1,3.408,1.656V33.54h1.728V43.5h-1.728V42.108a4.2,4.2,0,0,1-3.408,1.68C-1673.216,43.789-1675.544,42.013-1675.544,38.508Zm1.777,0c0,2.137,1.2,3.744,3.263,3.744,2.112,0,3.312-1.751,3.312-3.72a3.374,3.374,0,0,0-3.312-3.7C-1672.208,34.836-1673.768,36.085-1673.768,38.508Zm-30.768.049a5.114,5.114,0,0,1,5.28-5.256,5.114,5.114,0,0,1,5.279,5.256,5.108,5.108,0,0,1-5.279,5.232A5.108,5.108,0,0,1-1704.536,38.557Zm1.776,0a3.452,3.452,0,0,0,3.5,3.7,3.453,3.453,0,0,0,3.5-3.7,3.448,3.448,0,0,0-3.5-3.721A3.462,3.462,0,0,0-1702.76,38.557Zm-17.087-3a8.137,8.137,0,0,1,8.375-8.328,7.544,7.544,0,0,1,4.729,1.584V31.02a7.905,7.905,0,0,0-2.088-1.488,6.818,6.818,0,0,0-2.76-.624,6.457,6.457,0,0,0-6.432,6.672,6.406,6.406,0,0,0,6.457,6.528,6.651,6.651,0,0,0,2.975-.743,7.28,7.28,0,0,0,1.849-1.345v2.209a8.338,8.338,0,0,1-4.824,1.56A8.093,8.093,0,0,1-1719.848,35.556Zm-70.16,5.688,1.488-.624a2.254,2.254,0,0,0,2.016,1.632,1.546,1.546,0,0,0,1.633-1.584c0-.936-.672-1.247-1.608-1.656a6.489,6.489,0,0,1-2.424-1.463,2.164,2.164,0,0,1-.456-1.464,2.677,2.677,0,0,1,2.9-2.784,2.872,2.872,0,0,1,2.736,1.8l-1.417.743a1.526,1.526,0,0,0-1.391-1.008,1.1,1.1,0,0,0-1.2,1.129c0,.72.481.936,1.608,1.416a6.046,6.046,0,0,1,2.5,1.536,2.356,2.356,0,0,1,.528,1.607,3.168,3.168,0,0,1-3.432,3.264A3.562,3.562,0,0,1-1790.008,41.244Zm-23.711-2.687a5.114,5.114,0,0,1,5.279-5.256,5.114,5.114,0,0,1,5.28,5.256,5.108,5.108,0,0,1-5.28,5.232A5.108,5.108,0,0,1-1813.72,38.557Zm1.776,0a3.452,3.452,0,0,0,3.5,3.7,3.453,3.453,0,0,0,3.5-3.7,3.448,3.448,0,0,0-3.5-3.721A3.461,3.461,0,0,0-1811.944,38.557Zm-24.528-.049c0-3.432,2.3-5.207,4.847-5.207a4.122,4.122,0,0,1,3.408,1.656V33.54h1.728V43.5h-1.728V42.108a4.2,4.2,0,0,1-3.408,1.68C-1834.144,43.789-1836.472,42.013-1836.472,38.508Zm1.776,0c0,2.137,1.2,3.744,3.263,3.744,2.112,0,3.312-1.751,3.312-3.72a3.374,3.374,0,0,0-3.312-3.7C-1833.136,34.836-1834.7,36.085-1834.7,38.508Zm-31.776,2.736,1.488-.624a2.254,2.254,0,0,0,2.016,1.632,1.546,1.546,0,0,0,1.633-1.584c0-.936-.672-1.247-1.608-1.656a6.488,6.488,0,0,1-2.424-1.463,2.164,2.164,0,0,1-.456-1.464,2.677,2.677,0,0,1,2.9-2.784,2.872,2.872,0,0,1,2.736,1.8l-1.417.743a1.526,1.526,0,0,0-1.391-1.008,1.1,1.1,0,0,0-1.2,1.129c0,.72.481.936,1.608,1.416a6.046,6.046,0,0,1,2.5,1.536,2.356,2.356,0,0,1,.528,1.607,3.168,3.168,0,0,1-3.432,3.264A3.562,3.562,0,0,1-1866.472,41.244Zm-11.4-2.664c0-2.975,1.823-5.279,4.824-5.279a4.456,4.456,0,0,1,3.767,1.823,6.693,6.693,0,0,1,.936,3.744h-7.752a3.19,3.19,0,0,0,3.168,3.384,3.027,3.027,0,0,0,2.04-.72,3.963,3.963,0,0,0,1.031-1.368l1.44.792a5.954,5.954,0,0,1-1.224,1.608,4.832,4.832,0,0,1-3.312,1.224C-1875.352,43.789-1877.872,42.277-1877.872,38.58Zm1.9-1.152h5.856a2.981,2.981,0,0,0-2.928-2.592A3.028,3.028,0,0,0-1875.976,37.428Zm224.24,6.072V35.124h-1.057V33.54h1.057v-3.6h1.728v3.6h1.728v1.584h-1.728V43.5Zm-28.273,0V35.124h-1.056V33.54h1.056v-3.6h1.728v3.6h1.728v1.584h-1.728V43.5Zm-5.04,0v-6.12a2.931,2.931,0,0,0-.455-1.824,1.956,1.956,0,0,0-1.633-.72,2.177,2.177,0,0,0-1.751.769,4.192,4.192,0,0,0-.72,2.687V43.5h-1.728V33.54h1.728v1.152a3.513,3.513,0,0,1,2.856-1.391,3.376,3.376,0,0,1,2.856,1.368,4.44,4.44,0,0,1,.576,2.664V43.5Zm-109.183,0v-6.12a2.931,2.931,0,0,0-.456-1.824,1.954,1.954,0,0,0-1.632-.72,2.178,2.178,0,0,0-1.752.769,4.193,4.193,0,0,0-.72,2.687V43.5h-1.728V33.54h1.728v1.152a3.516,3.516,0,0,1,2.857-1.391,3.378,3.378,0,0,1,2.856,1.368,4.44,4.44,0,0,1,.576,2.664V43.5Zm-23.856,0V33.54h1.728V43.5Zm-5.088,0V35.124h-1.056V33.54h1.056v-3.6h1.728v3.6h1.728v1.584h-1.728V43.5Zm-17.664,0v-6.12a2.926,2.926,0,0,0-.456-1.824,1.954,1.954,0,0,0-1.632-.72,2.176,2.176,0,0,0-1.751.769,4.194,4.194,0,0,0-.721,2.687V43.5h-1.727V33.54h1.727v1.152a3.516,3.516,0,0,1,2.857-1.391,3.376,3.376,0,0,1,2.856,1.368,4.44,4.44,0,0,1,.576,2.664V43.5Zm-11.28,0V33.54h1.728V43.5Zm-5.089,0V35.124h-1.056V33.54h1.056v-3.6h1.728v3.6h1.729v1.584h-1.729V43.5Zm-34.776,0V27.492h3.264a8.706,8.706,0,0,1,5.9,1.872,7.8,7.8,0,0,1,2.736,6.144,7.622,7.622,0,0,1-2.808,6.144c-1.463,1.247-3,1.848-5.856,1.848Zm1.777-1.68h1.56a6.843,6.843,0,0,0,4.585-1.44,6.126,6.126,0,0,0,2.16-4.872c0-3.84-2.688-6.336-6.745-6.336h-1.56Zm-57.144,1.68V35.6h-1.153v-2.5h1.153V29.557h2.928v3.551h2.016v2.5h-2.016v7.9Zm-44.977,0-1.416-3.36h-6.456l-1.417,3.36H-2005l6.889-16.008h2.448l6.7,16.008Zm-6.888-5.9h4.559l-2.28-5.76Zm432.5-.8h0Zm-251.728-7.025a1.229,1.229,0,0,1,1.224-1.224A1.229,1.229,0,0,1-1816,29.773,1.229,1.229,0,0,1-1817.224,31,1.229,1.229,0,0,1-1818.448,29.773Zm-34.032,0a1.229,1.229,0,0,1,1.224-1.224,1.229,1.229,0,0,1,1.224,1.224A1.23,1.23,0,0,1-1851.256,31,1.229,1.229,0,0,1-1852.48,29.773Zm285.76-4.177h0Z" transform="translate(2006.519 -24.596)" fill="none" stroke="#fff" stroke-linecap="round" stroke-width="2"/>
</svg>
